<svg viewBox="162.976 132.359 136 136" xmlns="http://www.w3.org/2000/svg" class="np-header__logo__svg np-header__logo__svg--icon" aria-label="nftperp"><linearGradient id="nftperp-icon_svg__a" gradientUnits="userSpaceOnUse" x1="122.036" y1="119.032" x2="27.31" y2="30.457" gradientTransform="translate(160.177 129.159)"><stop offset="0.006" style="stop-color:#4a00c7"></stop><stop offset="0.249" style="stop-color:#7500e2"></stop><stop offset="0.5" style="stop-color:#982be3"></stop><stop offset="0.785" style="stop-color:#f8958e"></stop><stop offset="1" style="stop-color:#ffda50"></stop></linearGradient><path class="nftperp-icon_svg__st0" d="M230.976 132.359c-37.6 0-68 30.4-68 68s30.4 68 68 68 68-30.4 68-68-30.4-68-68-68Zm-23.2 94-11.7 4.2c-2.7 1-5.1-1.2-4.3-4l3.6-14.6c.2-.9 1.3-1.1 1.9-.4l11 13.1c.5.5.2 1.4-.5 1.7Zm18.7-6.9-8.3 3.1c-.4.2-.9 0-1.2-.3l-18.8-21c-.2-.3-.3-.6-.2-1l2.4-9.6c.2-.8 1.3-1.1 1.9-.5l24.7 27.5c.4.6.2 1.5-.5 1.8Zm30.1 6.4-.4 1.6c-.8 3.2-4.9 4.2-7.1 1.7l-42.7-47.8c-1.7-1.9-2.4-4.5-1.8-6.9l.4-2c.6-2.9 4.3-3.9 6.3-1.7l43.2 47.2c2 2.1 2.8 5 2.1 7.9Zm6-25.2-2.4 9.6c-.2.8-1.3 1.1-1.9.5l-24.6-27.5c-.5-.6-.3-1.5.4-1.7l8.3-3.1c.4-.2.9 0 1.2.3l18.7 21c.3.2.4.6.3.9Zm6.2-26.3-3.6 14.6c-.2.9-1.3 1.1-1.9.4l-11-13.1c-.5-.6-.2-1.5.5-1.7l11.7-4.2c2.7-.9 5.1 1.2 4.3 4Z" style="fill:url(#nftperp-icon_svg__a)"></path></svg>